HIERARCHY
ROOT SpineBase
{
  OFFSET 0.000000 0.000000 0.000000
  CHANNELS 6 Xposition Yposition Zposition Zrotation Xrotation Yrotation
  JOINT SpineMid
  {
    OFFSET 0.000000 32.135959 0.000000
    CHANNELS 3 Zrotation Xrotation Yrotation
    JOINT SpineShoulder
    {
      OFFSET -0.363952 23.790574 -0.613851
      CHANNELS 3 Zrotation Xrotation Yrotation
      JOINT Neck
      {
        OFFSET -0.197490 7.862543 -0.547213
        CHANNELS 3 Zrotation Xrotation Yrotation
        JOINT Head
        {
          OFFSET -1.189529 12.602853 3.931269
          CHANNELS 3 Zrotation Xrotation Yrotation
          End Site
          {
            OFFSET 0 0 0
          }
        }
      }
      JOINT ShoulderLeft
      {
        OFFSET -8.481907 -3.183710 10.834430
        CHANNELS 3 Zrotation Xrotation Yrotation
        JOINT ElbowLeft
        {
          OFFSET -1.343329 -26.025363 -17.795162
          CHANNELS 3 Zrotation Xrotation Yrotation
          JOINT WristLeft
          {
            OFFSET 1.026173 -18.018981 23.467834
            CHANNELS 3 Zrotation Xrotation Yrotation
            JOINT HandLeft
            {
              OFFSET -1.266886 -4.752689 2.683627
              CHANNELS 3 Zrotation Xrotation Yrotation
              JOINT HandTipLeft
              {
                OFFSET -0.078976 0.920569 0.051114
                CHANNELS 3 Zrotation Xrotation Yrotation
                End Site
                {
                  OFFSET 0 0 0
                }
              }
              JOINT ThumbLeft
              {
                OFFSET -0.012194 1.871671 -2.083178
                CHANNELS 3 Zrotation Xrotation Yrotation
                End Site
                {
                  OFFSET 0 0 0
                }
              }
            }
          }
        }
      }
      JOINT ShoulderRight
      {
        OFFSET -2.755504 -5.103036 -10.645663
        CHANNELS 3 Zrotation Xrotation Yrotation
        JOINT ElbowRight
        {
          OFFSET -6.727920 -26.343870 -0.961088
          CHANNELS 3 Zrotation Xrotation Yrotation
          JOINT WristRight
          {
            OFFSET -4.615121 -22.455833 2.207188
            CHANNELS 3 Zrotation Xrotation Yrotation
            JOINT HandRight
            {
              OFFSET 1.298728 -4.854798 1.847756
              CHANNELS 3 Zrotation Xrotation Yrotation
              JOINT HandTipRight
              {
                OFFSET 0.332369 -6.790371 2.240016
                CHANNELS 3 Zrotation Xrotation Yrotation
                End Site
                {
                  OFFSET 0 0 0
                }
              }
              JOINT ThumbRight
              {
                OFFSET -3.939100 0.904594 -2.810018
                CHANNELS 3 Zrotation Xrotation Yrotation
                End Site
                {
                  OFFSET 0 0 0
                }
              }
            }
          }
        }
      }
    }
  }
  JOINT HipLeft
  {
    OFFSET -3.112923 0.307835 -2.408488
    CHANNELS 3 Zrotation Xrotation Yrotation
    JOINT KneeLeft
    {
      OFFSET 16.954000 -19.401973 13.039858
      CHANNELS 3 Zrotation Xrotation Yrotation
      JOINT AnkleLeft
      {
        OFFSET 4.315992 -31.505842 4.295129
        CHANNELS 3 Zrotation Xrotation Yrotation
        JOINT FootLeft
        {
          OFFSET -5.590695 -6.917355 -2.887254
          CHANNELS 3 Zrotation Xrotation Yrotation
          End Site
          {
            OFFSET 0 0 0
          }
        }
      }
    }
  }
  JOINT HipRight
  {
    OFFSET 1.027087 1.040606 -3.979300
    CHANNELS 3 Zrotation Xrotation Yrotation
    JOINT KneeRight
    {
      OFFSET -0.589229 -24.260132 2.910844
      CHANNELS 3 Zrotation Xrotation Yrotation
      JOINT AnkleRight
      {
        OFFSET 7.843340 -33.549738 3.126848
        CHANNELS 3 Zrotation Xrotation Yrotation
        JOINT FootRight
        {
          OFFSET -1.499085 -5.941554 1.554204
          CHANNELS 3 Zrotation Xrotation Yrotation
          End Site
          {
            OFFSET 0 0 0
          }
        }
      }
    }
  }
}
MOTION
Frames: 14
Frame Time: 0.033333
106.053171 65.972959 322.914454 1.032599 -2.767877 48.093310 -0.243880 0.466849 -48.083101 0.535459 0.394411 0.028123 8.671171 3.626754 -3.362818 0.000000 0.000000 0.000000 -10.400752 -14.612082 6.963869 -43.658616 -40.488410 -57.688252 21.593525 17.673494 24.951639 174.162263 88.883863 -168.912232 0.000000 0.000000 0.000000 0.000000 0.000000 0.000000 -22.974464 -12.169074 2.470034 -49.622243 -49.602679 -25.784378 -20.685668 14.861970 -35.381490 -13.251336 25.465902 43.180929 0.000000 0.000000 0.000000 0.000000 0.000000 0.000000 8.990205 14.797260 -38.892734 -0.800409 -5.826076 -10.041161 14.117824 -20.159021 9.006700 0.000000 0.000000 0.000000 8.397821 1.232532 -47.751527 -7.022657 -4.877862 -1.166235 -19.459273 15.678342 -5.950975 0.000000 0.000000 0.000000
106.097368 65.676936 322.824531 1.130925 -2.586900 48.105102 -0.316457 0.446120 -48.090155 0.494051 0.398913 0.030633 8.736607 3.001610 -3.389660 0.000000 0.000000 0.000000 -10.353163 -12.219716 6.851121 -50.094200 -33.064972 -64.820912 7.585422 24.143736 33.606329 173.652107 80.528353 -145.605003 0.000000 0.000000 0.000000 0.000000 0.000000 0.000000 -24.380661 -12.118279 2.333661 -46.170663 -47.743518 -24.050130 -11.197326 8.417144 -42.176144 -28.048297 23.063172 49.501750 0.000000 0.000000 0.000000 0.000000 0.000000 0.000000 8.909361 14.411757 -38.805729 -1.540882 -7.102173 -10.497223 14.136797 -18.867969 9.200758 0.000000 0.000000 0.000000 7.806650 1.058289 -47.742732 -6.754580 -4.497137 -1.103872 -24.216919 21.469073 -6.706750 0.000000 0.000000 0.000000
106.081889 65.526296 322.774734 1.163573 -2.460939 48.079100 -0.336756 0.418592 -48.062684 0.460317 0.400950 0.032056 8.708875 2.537441 -3.376515 0.000000 0.000000 0.000000 -10.689349 -11.399528 7.031451 -51.596780 -29.417058 -67.222353 8.750507 16.647856 34.770544 -167.632100 72.088634 -157.918900 0.000000 0.000000 0.000000 0.000000 0.000000 0.000000 -25.207469 -11.365931 2.210658 -42.811132 -45.870059 -22.285022 -4.513100 -1.339138 -48.502352 -37.556112 17.399703 50.878827 0.000000 0.000000 0.000000 0.000000 0.000000 0.000000 8.691373 14.249601 -38.878491 -1.010325 -9.118210 -10.467882 11.571839 -15.474595 7.760773 0.000000 0.000000 0.000000 7.575181 0.897947 -47.694063 -6.634141 -4.322441 -1.072390 -25.689350 23.350595 -6.861857 0.000000 0.000000 0.000000
106.008768 65.468153 322.844909 1.118904 -2.490945 48.531886 -0.260776 0.423559 -48.517363 0.435883 0.454984 0.032240 8.668420 2.064217 -3.350323 0.000000 0.000000 0.000000 -11.000766 -10.709596 7.223419 -49.450340 -32.658022 -65.647493 7.584664 11.184983 32.839614 162.471641 64.328553 -124.449592 0.000000 0.000000 0.000000 0.000000 0.000000 0.000000 -26.193613 -10.759311 2.102597 -38.934933 -44.417556 -20.651231 -1.354415 -10.338285 -52.564548 -50.812559 22.441060 60.983951 0.000000 0.000000 0.000000 0.000000 0.000000 0.000000 9.010744 14.141718 -39.180333 0.361151 -12.900682 -10.553483 6.827402 -10.969969 6.867423 0.000000 0.000000 0.000000 7.906208 0.784441 -48.127430 -6.760453 -4.434959 -1.083028 -24.067493 22.996895 -6.836068 0.000000 0.000000 0.000000
105.841484 65.415129 322.997413 0.974162 -2.593491 47.439099 -0.183517 0.393190 -47.431388 0.439250 0.551781 0.030486 8.476555 1.529465 -3.264121 0.000000 0.000000 0.000000 -11.207295 -10.151008 7.389828 -42.034475 -41.324459 -58.311488 1.545072 3.129679 28.702090 175.515910 59.543436 -139.023224 0.000000 0.000000 0.000000 0.000000 0.000000 0.000000 -26.820833 -9.849968 2.030964 -36.719829 -43.579323 -19.934688 2.666611 -15.432322 -53.589456 -52.373836 21.734942 58.407146 0.000000 0.000000 0.000000 0.000000 0.000000 0.000000 8.941539 14.277287 -38.033993 1.145251 -13.991000 -10.397108 2.542862 -6.501438 4.529459 0.000000 0.000000 0.000000 8.750624 1.004391 -47.040756 -7.135505 -4.865457 -1.132305 -12.609631 14.213654 -5.133255 0.000000 0.000000 0.000000
105.609424 65.479042 323.187905 0.754366 -2.742887 45.823480 -0.112923 0.335816 -45.826850 0.469858 0.647814 0.026814 8.262302 1.151784 -3.168025 0.000000 0.000000 0.000000 -11.393844 -9.655337 7.584090 -31.985458 -46.872534 -48.404129 0.163584 -7.054640 25.094405 -160.087293 53.251537 -169.087989 0.000000 0.000000 0.000000 0.000000 0.000000 0.000000 -27.186867 -8.935478 2.013517 -34.637861 -43.014841 -19.248653 5.204885 -21.421890 -55.021866 -53.106384 18.419683 55.597915 0.000000 0.000000 0.000000 0.000000 0.000000 0.000000 8.795509 14.616685 -36.358955 1.454703 -15.076845 -10.437195 -1.072799 -4.303449 4.615150 0.000000 0.000000 0.000000 9.849844 1.302043 -45.433875 -7.679159 -5.436476 -1.224910 -11.251550 13.258078 -4.882212 0.000000 0.000000 0.000000
105.321521 65.608551 323.357904 0.459323 -2.859794 42.840613 -0.059814 0.236392 -42.859591 0.533324 0.728161 0.022067 8.008998 0.819028 -3.054903 0.000000 0.000000 0.000000 -11.611221 -9.580877 7.824933 -22.212972 -49.233119 -38.888634 -3.288351 -20.646933 23.109940 -135.813634 40.210224 168.536154 0.000000 0.000000 0.000000 0.000000 0.000000 0.000000 -27.302995 -8.090859 2.023645 -33.098973 -43.316385 -18.972449 4.898254 -24.038357 -55.522092 -51.279741 16.041404 53.286164 0.000000 0.000000 0.000000 0.000000 0.000000 0.000000 8.532507 14.278234 -33.232900 0.648015 -13.682770 -10.563679 -3.481173 -4.418654 4.848183 0.000000 0.000000 0.000000 11.144989 1.947491 -42.495222 -8.325348 -6.269033 -1.364190 -4.444468 7.317431 -2.713552 0.000000 0.000000 0.000000
105.010223 65.832314 323.481691 0.117322 -2.909048 39.125551 -0.002375 0.085570 -39.163127 0.598924 0.788073 0.016843 7.811675 0.429294 -2.959530 0.000000 0.000000 0.000000 -11.496195 -9.396612 7.853461 -21.558950 -48.401446 -38.335351 -7.090812 -26.943374 22.362221 -123.377332 37.934769 162.059828 0.000000 0.000000 0.000000 0.000000 0.000000 0.000000 -27.093299 -7.401349 2.045345 -32.544960 -44.478973 -19.218346 2.433576 -24.803845 -56.338453 -57.532061 10.576914 57.603789 0.000000 0.000000 0.000000 0.000000 0.000000 0.000000 8.006467 13.753691 -29.569754 -1.677945 -8.956465 -10.639494 -1.549770 -9.592994 5.898902 0.000000 0.000000 0.000000 12.297166 2.788204 -38.849736 -8.900244 -7.079685 -1.502943 -7.514388 11.314688 -4.070304 0.000000 0.000000 0.000000
104.591518 66.090018 323.557430 -0.393114 -2.945703 35.356463 0.103705 -0.106388 -35.422137 0.633007 0.790016 0.004867 7.808798 0.116087 -2.882046 0.000000 0.000000 0.000000 -11.125756 -8.366217 7.828293 -20.176004 -48.346469 -36.901090 -5.290009 -36.775154 22.714968 -110.090098 42.457727 147.547414 0.000000 0.000000 0.000000 0.000000 0.000000 0.000000 -26.691998 -6.539132 2.103135 -34.016133 -47.195467 -20.986513 2.881011 -23.827943 -56.463223 -49.634748 8.962441 51.487097 0.000000 0.000000 0.000000 0.000000 0.000000 0.000000 7.935754 12.579071 -25.852792 -4.392753 -4.160677 -10.608914 -1.669335 -14.385688 7.333239 0.000000 0.000000 0.000000 13.643985 3.444842 -35.112098 -9.752804 -7.767544 -1.695835 -1.841173 6.835401 -2.134255 0.000000 0.000000 0.000000
104.257060 66.187569 323.514039 -0.805509 -2.861772 33.525444 0.135764 -0.301351 -33.613432 0.607407 0.714597 -0.009153 7.781205 -0.155626 -2.786998 0.000000 0.000000 0.000000 -10.543461 -7.049720 7.679748 -24.012622 -48.482072 -40.521578 14.065381 -32.386122 28.447725 -136.298638 41.853074 159.129525 0.000000 0.000000 0.000000 0.000000 0.000000 0.000000 -26.358025 -5.365314 2.160032 -34.578955 -48.789872 -22.047427 2.448832 -23.398378 -56.355244 -48.768517 6.084688 50.320095 0.000000 0.000000 0.000000 0.000000 0.000000 0.000000 7.738473 11.752405 -24.380326 -6.699556 0.753380 -10.050671 4.329580 -23.357183 11.121484 0.000000 0.000000 0.000000 14.334129 3.308655 -33.205521 -10.298455 -7.763387 -1.788683 -7.783109 10.444743 -3.984990 0.000000 0.000000 0.000000
104.061489 66.120844 323.336386 -1.076678 -2.653467 32.023784 0.101275 -0.447392 -32.123838 0.534467 0.605759 -0.022449 7.656046 -0.686390 -2.658970 0.000000 0.000000 0.000000 -10.063958 -5.854828 7.573144 -29.772631 -47.475641 -46.370688 29.523318 -22.518607 30.260925 128.521275 7.849204 -124.237415 0.000000 0.000000 0.000000 0.000000 0.000000 0.000000 -26.035492 -4.219011 2.172002 -35.833405 -50.706909 -23.642514 1.193864 -20.203781 -55.134480 -31.911897 1.782581 38.660534 0.000000 0.000000 0.000000 0.000000 0.000000 0.000000 7.119711 11.032041 -23.499216 -9.031637 5.904463 -8.955983 18.326671 -31.336864 16.139135 0.000000 0.000000 0.000000 14.489081 2.970624 -31.598928 -9.767690 -7.390029 -1.611470 -7.476914 7.005569 -3.267595 0.000000 0.000000 0.000000
103.985939 65.872302 323.052538 -1.231261 -2.377373 30.971585 0.030499 -0.534972 -31.075099 0.415090 0.457531 -0.036049 7.559494 -1.258526 -2.538267 0.000000 0.000000 0.000000 -9.397716 -4.658839 7.318093 -32.016856 -46.280178 -48.491964 0.591593 -38.548289 25.133598 135.119660 -18.475863 -103.117829 0.000000 0.000000 0.000000 0.000000 0.000000 0.000000 -25.737092 -3.340040 2.160445 -37.530980 -52.567376 -25.508026 -0.000936 -19.232834 -55.447748 -25.435741 -1.062253 34.948858 0.000000 0.000000 0.000000 0.000000 0.000000 0.000000 6.833557 9.433735 -23.121758 -11.291244 10.712289 -7.538762 33.946888 -38.123560 25.021119 0.000000 0.000000 0.000000 14.250629 2.370410 -30.410450 -9.901735 -6.818910 -1.601668 -3.984418 0.969366 -1.245312 0.000000 0.000000 0.000000
103.939761 65.479914 322.887098 -1.355124 -2.295881 31.516412 -0.083796 -0.541285 -31.626494 0.253452 0.282383 -0.056680 7.559258 -1.508674 -2.432375 0.000000 0.000000 0.000000 -8.621324 -3.385450 7.074609 -31.471583 -48.369955 -47.381146 1.366729 -33.021343 25.135851 112.726927 -25.430185 -93.326742 0.000000 0.000000 0.000000 0.000000 0.000000 0.000000 -25.266582 -2.026082 2.219220 -39.934891 -54.647319 -27.973741 -1.915560 -17.942339 -55.761943 -20.524351 -0.586968 33.013012 0.000000 0.000000 0.000000 0.000000 0.000000 0.000000 6.619104 8.413278 -24.375362 -12.759370 15.003924 -5.910726 62.040255 -42.979574 45.172327 0.000000 0.000000 0.000000 14.055457 1.653178 -30.843257 -9.891016 -6.286339 -1.567674 1.141019 -5.735717 1.784951 0.000000 0.000000 0.000000
103.970931 64.915450 322.849444 -1.403669 -2.427055 33.174735 -0.182763 -0.427991 -33.290707 0.106734 0.156769 -0.075693 7.459517 -1.597847 -2.314374 0.000000 0.000000 0.000000 -8.016309 -2.387282 6.920760 -33.199229 -48.734902 -48.895354 9.864701 -34.700912 27.950807 132.346728 -13.696405 -108.282609 0.000000 0.000000 0.000000 0.000000 0.000000 0.000000 -24.793887 -0.344533 2.286559 -42.215144 -56.604070 -30.450226 -4.053912 -17.209230 -56.060584 -20.039675 4.640022 34.421245 0.000000 0.000000 0.000000 0.000000 0.000000 0.000000 6.901165 7.731279 -26.354633 -12.016189 14.916995 -5.502328 72.343354 -41.808376 52.720963 0.000000 0.000000 0.000000 13.857553 1.023458 -32.440648 -9.753694 -5.840992 -1.517421 8.194426 -11.601163 5.863114 0.000000 0.000000 0.000000
